{
    "asset" : {
        "generator" : "Khronos glTF Blender I/O v3.4.49",
        "version" : "2.0"
    },
    "extensionsUsed" : [
        "KHR_materials_specular",
        "KHR_materials_ior"
    ],
    "scene" : 0,
    "scenes" : [
        {
            "name" : "Scene",
            "nodes" : [
                0
            ]
        }
    ],
    "nodes" : [
        {
            "mesh" : 0,
            "name" : "\u043f\u043e\u043d\u0447\u0438\u043a",
            "translation" : [
                0,
                0.01729838363826275,
                0
            ]
        }
    ],
    "animations" : [
        {
            "channels" : [
                {
                    "sampler" : 0,
                    "target" : {
                        "node" : 0,
                        "path" : "translation"
                    }
                },
                {
                    "sampler" : 1,
                    "target" : {
                        "node" : 0,
                        "path" : "rotation"
                    }
                },
                {
                    "sampler" : 2,
                    "target" : {
                        "node" : 0,
                        "path" : "scale"
                    }
                }
            ],
            "name" : "\u043f\u043e\u043d\u0447\u0438\u043a",
            "samplers" : [
                {
                    "input" : 8,
                    "interpolation" : "LINEAR",
                    "output" : 9
                },
                {
                    "input" : 8,
                    "interpolation" : "LINEAR",
                    "output" : 10
                },
                {
                    "input" : 8,
                    "interpolation" : "LINEAR",
                    "output" : 11
                }
            ]
        }
    ],
    "materials" : [
        {
            "doubleSided" : true,
            "extensions" : {
                "KHR_materials_specular" : {
                    "specularColorFactor" : [
                        1.2058606000150467,
                        1.2058606000150467,
                        1.2058606000150467
                    ]
                },
                "KHR_materials_ior" : {
                    "ior" : 1.4500000476837158
                }
            },
            "name" : "Material.002",
            "pbrMetallicRoughness" : {
                "baseColorTexture" : {
                    "index" : 0
                },
                "metallicFactor" : 0,
                "roughnessFactor" : 0.6425531506538391
            }
        },
        {
            "doubleSided" : true,
            "extensions" : {
                "KHR_materials_specular" : {
                    "specularColorFactor" : [
                        1.3975874195454574,
                        1.3975874195454574,
                        1.3975874195454574
                    ]
                },
                "KHR_materials_ior" : {
                    "ior" : 1.4500000476837158
                }
            },
            "name" : "Material",
            "pbrMetallicRoughness" : {
                "baseColorTexture" : {
                    "index" : 1
                },
                "metallicFactor" : 0,
                "roughnessFactor" : 0.31702128052711487
            }
        }
    ],
    "meshes" : [
        {
            "name" : "Torus.001",
            "primitives" : [
                {
                    "attributes" : {
                        "POSITION" : 0,
                        "TEXCOORD_0" : 1,
                        "NORMAL" : 2
                    },
                    "indices" : 3,
                    "material" : 0
                },
                {
                    "attributes" : {
                        "POSITION" : 4,
                        "TEXCOORD_0" : 5,
                        "NORMAL" : 6
                    },
                    "indices" : 7,
                    "material" : 1
                }
            ]
        }
    ],
    "textures" : [
        {
            "sampler" : 0,
            "source" : 0
        },
        {
            "sampler" : 0,
            "source" : 0
        }
    ],
    "images" : [
        {
            "mimeType" : "image/png",
            "name" : "\u043e\u0441\u043d\u043e\u0432\u0430 \u043f\u043e\u043d\u0447\u0438\u043a01 ",
            "uri" : "Textures/%D0%BE%D1%81%D0%BD%D0%BE%D0%B2%D0%B0%20%D0%BF%D0%BE%D0%BD%D1%87%D0%B8%D0%BA01%20.png"
        }
    ],
    "accessors" : [
        {
            "bufferView" : 0,
            "componentType" : 5126,
            "count" : 10465,
            "max" : [
                0.049033377319574356,
                0.015096202492713928,
                0.04971156269311905
            ],
            "min" : [
                -0.04913558065891266,
                -0.018694307655096054,
                -0.048512544482946396
            ],
            "type" : "VEC3"
        },
        {
            "bufferView" : 1,
            "componentType" : 5126,
            "count" : 10465,
            "type" : "VEC2"
        },
        {
            "bufferView" : 2,
            "componentType" : 5126,
            "count" : 10465,
            "type" : "VEC3"
        },
        {
            "bufferView" : 3,
            "componentType" : 5123,
            "count" : 61440,
            "type" : "SCALAR"
        },
        {
            "bufferView" : 4,
            "componentType" : 5126,
            "count" : 68631,
            "max" : [
                0.05019262805581093,
                0.01920662820339203,
                0.05231037735939026
            ],
            "min" : [
                -0.05086439847946167,
                -0.012746221385896206,
                -0.04975264146924019
            ],
            "type" : "VEC3"
        },
        {
            "bufferView" : 5,
            "componentType" : 5126,
            "count" : 68631,
            "type" : "VEC2"
        },
        {
            "bufferView" : 6,
            "componentType" : 5126,
            "count" : 68631,
            "type" : "VEC3"
        },
        {
            "bufferView" : 7,
            "componentType" : 5125,
            "count" : 382560,
            "type" : "SCALAR"
        },
        {
            "bufferView" : 8,
            "componentType" : 5126,
            "count" : 2,
            "max" : [
                0.041666666666666664
            ],
            "min" : [
                0
            ],
            "type" : "SCALAR"
        },
        {
            "bufferView" : 9,
            "componentType" : 5126,
            "count" : 2,
            "type" : "VEC3"
        },
        {
            "bufferView" : 10,
            "componentType" : 5126,
            "count" : 2,
            "type" : "VEC4"
        },
        {
            "bufferView" : 11,
            "componentType" : 5126,
            "count" : 2,
            "type" : "VEC3"
        }
    ],
    "bufferViews" : [
        {
            "buffer" : 0,
            "byteLength" : 125580,
            "byteOffset" : 0,
            "target" : 34962
        },
        {
            "buffer" : 0,
            "byteLength" : 83720,
            "byteOffset" : 125580,
            "target" : 34962
        },
        {
            "buffer" : 0,
            "byteLength" : 125580,
            "byteOffset" : 209300,
            "target" : 34962
        },
        {
            "buffer" : 0,
            "byteLength" : 122880,
            "byteOffset" : 334880,
            "target" : 34963
        },
        {
            "buffer" : 0,
            "byteLength" : 823572,
            "byteOffset" : 457760,
            "target" : 34962
        },
        {
            "buffer" : 0,
            "byteLength" : 549048,
            "byteOffset" : 1281332,
            "target" : 34962
        },
        {
            "buffer" : 0,
            "byteLength" : 823572,
            "byteOffset" : 1830380,
            "target" : 34962
        },
        {
            "buffer" : 0,
            "byteLength" : 1530240,
            "byteOffset" : 2653952,
            "target" : 34963
        },
        {
            "buffer" : 0,
            "byteLength" : 8,
            "byteOffset" : 4184192
        },
        {
            "buffer" : 0,
            "byteLength" : 24,
            "byteOffset" : 4184200
        },
        {
            "buffer" : 0,
            "byteLength" : 32,
            "byteOffset" : 4184224
        },
        {
            "buffer" : 0,
            "byteLength" : 24,
            "byteOffset" : 4184256
        }
    ],
    "samplers" : [
        {
            "magFilter" : 9729,
            "minFilter" : 9987
        }
    ],
    "buffers" : [
        {
            "byteLength" : 4184280,
            "uri" : "uploads_files_3780593_\u043f\u043e\u043d\u0447\u0438\u043a55.bin"
        }
    ]
}
