{
	"asset":{
		"generator":"Khronos glTF Blender I/O v4.0.44",
		"version":"2.0"
	},
	"extensionsUsed":[
		"KHR_materials_specular",
		"KHR_materials_ior"
	],
	"scene":0,
	"scenes":[
		{
			"name":"Scene",
			"nodes":[
				1,
				2,
				3,
				4,
				5,
				6,
				7,
				8
			]
		}
	],
	"nodes":[
		{
			"mesh":0,
			"name":"\u0433\u043b\u0430\u0437\u0443\u0440\u044c"
		},
		{
			"children":[
				0
			],
			"mesh":1,
			"name":"\u043f\u043e\u043d\u0447\u0438\u043a",
			"rotation":[
				0.2075842320919037,
				-0.431892067193985,
				-0.03066517971456051,
				0.8771759867668152
			],
			"translation":[
				0,
				0.01729838363826275,
				0
			]
		},
		{
			"mesh":2,
			"name":"Plane",
			"translation":[
				-0.00025454163551330566,
				0.02876080572605133,
				-1.5307159423828125
			]
		},
		{
			"name":"Empty",
			"translation":[
				-0.0017430484294891357,
				0.007737845182418823,
				0.02249414473772049
			]
		},
		{
			"mesh":3,
			"name":"\u0431\u0456\u0441\u0435\u0440",
			"translation":[
				0.47731614112854004,
				0.027966322377324104,
				-0.05290672928094864
			]
		},
		{
			"mesh":4,
			"name":"\u0431\u0456\u0441\u0435\u0440.001",
			"translation":[
				0.48096397519111633,
				0.027966322377324104,
				-0.05181752145290375
			]
		},
		{
			"mesh":5,
			"name":"\u0431\u0456\u0441\u0435\u0440.002",
			"translation":[
				0.48424604535102844,
				0.027966322377324104,
				-0.050282180309295654
			]
		},
		{
			"mesh":6,
			"name":"\u0431\u0456\u0441\u0435\u0440.003",
			"translation":[
				0.48808300495147705,
				0.027966417372226715,
				-0.05290086194872856
			]
		},
		{
			"mesh":7,
			"name":"\u0431\u0456\u0441\u0435\u0440.004",
			"translation":[
				0.4916742444038391,
				0.02796642668545246,
				-0.051392264664173126
			]
		}
	],
	"materials":[
		{
			"doubleSided":true,
			"extensions":{
				"KHR_materials_specular":{
					"specularColorFactor":[
						1.1787234544754028,
						1.1787234544754028,
						1.1787234544754028
					]
				},
				"KHR_materials_ior":{
					"ior":1.4500000476837158
				}
			},
			"name":"Material",
			"pbrMetallicRoughness":{
				"metallicFactor":0,
				"roughnessFactor":0.31702128052711487
			}
		},
		{
			"doubleSided":true,
			"extensions":{
				"KHR_materials_specular":{
					"specularColorFactor":[
						1.0170212984085083,
						1.0170212984085083,
						1.0170212984085083
					]
				},
				"KHR_materials_ior":{
					"ior":1.4500000476837158
				}
			},
			"name":"Material.002",
			"pbrMetallicRoughness":{
				"baseColorTexture":{
					"index":0
				},
				"metallicFactor":0,
				"roughnessFactor":0.6425531506538391
			}
		},
		{
			"doubleSided":true,
			"name":"Material.004",
			"pbrMetallicRoughness":{
				"metallicFactor":0,
				"roughnessFactor":0.2191489338874817
			}
		}
	],
	"meshes":[
		{
			"name":"Torus.002",
			"primitives":[
				{
					"attributes":{
						"POSITION":0,
						"NORMAL":1,
						"TEXCOORD_0":2
					},
					"indices":3,
					"material":0
				}
			]
		},
		{
			"name":"Torus.001",
			"primitives":[
				{
					"attributes":{
						"POSITION":4,
						"NORMAL":5,
						"TEXCOORD_0":6
					},
					"indices":7,
					"material":1
				}
			]
		},
		{
			"name":"Plane",
			"primitives":[
				{
					"attributes":{
						"POSITION":8,
						"NORMAL":9,
						"TEXCOORD_0":10
					},
					"indices":11
				}
			]
		},
		{
			"name":"Cylinder",
			"primitives":[
				{
					"attributes":{
						"POSITION":12,
						"NORMAL":13,
						"TEXCOORD_0":14
					},
					"indices":15,
					"material":2
				}
			]
		},
		{
			"name":"Cylinder.009",
			"primitives":[
				{
					"attributes":{
						"POSITION":16,
						"NORMAL":17,
						"TEXCOORD_0":18
					},
					"indices":15,
					"material":2
				}
			]
		},
		{
			"name":"Cylinder.010",
			"primitives":[
				{
					"attributes":{
						"POSITION":19,
						"NORMAL":20,
						"TEXCOORD_0":21
					},
					"indices":15,
					"material":2
				}
			]
		},
		{
			"name":"Cylinder.011",
			"primitives":[
				{
					"attributes":{
						"POSITION":22,
						"NORMAL":23,
						"TEXCOORD_0":24
					},
					"indices":25,
					"material":2
				}
			]
		},
		{
			"name":"Cylinder.012",
			"primitives":[
				{
					"attributes":{
						"POSITION":26,
						"NORMAL":27,
						"TEXCOORD_0":28
					},
					"indices":25,
					"material":2
				}
			]
		}
	],
	"textures":[
		{
			"sampler":0,
			"source":0
		}
	],
	"images":[
		{
			"mimeType":"image/png",
			"name":"\u043e\u0441\u043d\u043e\u0432\u0430 \u043f\u043e\u043d\u0447\u0438\u043a01 ",
			"uri":"%D0%BE%D1%81%D0%BD%D0%BE%D0%B2%D0%B0%20%D0%BF%D0%BE%D0%BD%D1%87%D0%B8%D0%BA01%20.png"
		}
	],
	"accessors":[
		{
			"bufferView":0,
			"componentType":5126,
			"count":13010,
			"max":[
				0.05026257410645485,
				0.01776069402694702,
				0.05241040512919426
			],
			"min":[
				-0.05102427676320076,
				-0.012851987965404987,
				-0.04986845701932907
			],
			"type":"VEC3"
		},
		{
			"bufferView":1,
			"componentType":5126,
			"count":13010,
			"type":"VEC3"
		},
		{
			"bufferView":2,
			"componentType":5126,
			"count":13010,
			"type":"VEC2"
		},
		{
			"bufferView":3,
			"componentType":5123,
			"count":72768,
			"type":"SCALAR"
		},
		{
			"bufferView":4,
			"componentType":5126,
			"count":697,
			"max":[
				0.05015988647937775,
				0.01543170865625143,
				0.050822433084249496
			],
			"min":[
				-0.05039152503013611,
				-0.019266774877905846,
				-0.04977748170495033
			],
			"type":"VEC3"
		},
		{
			"bufferView":5,
			"componentType":5126,
			"count":697,
			"type":"VEC3"
		},
		{
			"bufferView":6,
			"componentType":5126,
			"count":697,
			"type":"VEC2"
		},
		{
			"bufferView":7,
			"componentType":5123,
			"count":3840,
			"type":"SCALAR"
		},
		{
			"bufferView":8,
			"componentType":5126,
			"count":4,
			"max":[
				1,
				0,
				1
			],
			"min":[
				-1,
				0,
				-1
			],
			"type":"VEC3"
		},
		{
			"bufferView":9,
			"componentType":5126,
			"count":4,
			"type":"VEC3"
		},
		{
			"bufferView":10,
			"componentType":5126,
			"count":4,
			"type":"VEC2"
		},
		{
			"bufferView":11,
			"componentType":5123,
			"count":6,
			"type":"SCALAR"
		},
		{
			"bufferView":12,
			"componentType":5126,
			"count":52,
			"max":[
				0.0011866751592606306,
				0.0011485745199024677,
				0.003930898383259773
			],
			"min":[
				-0.0011866751592606306,
				-0.0011485745199024677,
				-0.003930898383259773
			],
			"type":"VEC3"
		},
		{
			"bufferView":13,
			"componentType":5126,
			"count":52,
			"type":"VEC3"
		},
		{
			"bufferView":14,
			"componentType":5126,
			"count":52,
			"type":"VEC2"
		},
		{
			"bufferView":15,
			"componentType":5123,
			"count":180,
			"type":"SCALAR"
		},
		{
			"bufferView":16,
			"componentType":5126,
			"count":52,
			"max":[
				0.0011866751592606306,
				0.0011485745199024677,
				0.002841691952198744
			],
			"min":[
				-0.0011866751592606306,
				-0.0011485745199024677,
				-0.0028416921850293875
			],
			"type":"VEC3"
		},
		{
			"bufferView":17,
			"componentType":5126,
			"count":52,
			"type":"VEC3"
		},
		{
			"bufferView":18,
			"componentType":5126,
			"count":52,
			"type":"VEC2"
		},
		{
			"bufferView":19,
			"componentType":5126,
			"count":52,
			"max":[
				0.0011866751592606306,
				0.0011485745199024677,
				0.0013063487131148577
			],
			"min":[
				-0.0011866751592606306,
				-0.0011485745199024677,
				-0.0013063463848084211
			],
			"type":"VEC3"
		},
		{
			"bufferView":20,
			"componentType":5126,
			"count":52,
			"type":"VEC3"
		},
		{
			"bufferView":21,
			"componentType":5126,
			"count":52,
			"type":"VEC2"
		},
		{
			"bufferView":22,
			"componentType":5126,
			"count":70,
			"max":[
				0.0009106575744226575,
				0.0011496623046696186,
				0.004886305425316095
			],
			"min":[
				-0.0016708984039723873,
				-0.0011496394872665405,
				-0.004918457008898258
			],
			"type":"VEC3"
		},
		{
			"bufferView":23,
			"componentType":5126,
			"count":70,
			"type":"VEC3"
		},
		{
			"bufferView":24,
			"componentType":5126,
			"count":70,
			"type":"VEC2"
		},
		{
			"bufferView":25,
			"componentType":5123,
			"count":276,
			"type":"SCALAR"
		},
		{
			"bufferView":26,
			"componentType":5126,
			"count":70,
			"max":[
				0.0013308944180607796,
				0.0011499898973852396,
				0.002856339793652296
			],
			"min":[
				-0.0015984115889295936,
				-0.0011492547346279025,
				-0.002958600874990225
			],
			"type":"VEC3"
		},
		{
			"bufferView":27,
			"componentType":5126,
			"count":70,
			"type":"VEC3"
		},
		{
			"bufferView":28,
			"componentType":5126,
			"count":70,
			"type":"VEC2"
		}
	],
	"bufferViews":[
		{
			"buffer":0,
			"byteLength":156120,
			"byteOffset":0,
			"target":34962
		},
		{
			"buffer":0,
			"byteLength":156120,
			"byteOffset":156120,
			"target":34962
		},
		{
			"buffer":0,
			"byteLength":104080,
			"byteOffset":312240,
			"target":34962
		},
		{
			"buffer":0,
			"byteLength":145536,
			"byteOffset":416320,
			"target":34963
		},
		{
			"buffer":0,
			"byteLength":8364,
			"byteOffset":561856,
			"target":34962
		},
		{
			"buffer":0,
			"byteLength":8364,
			"byteOffset":570220,
			"target":34962
		},
		{
			"buffer":0,
			"byteLength":5576,
			"byteOffset":578584,
			"target":34962
		},
		{
			"buffer":0,
			"byteLength":7680,
			"byteOffset":584160,
			"target":34963
		},
		{
			"buffer":0,
			"byteLength":48,
			"byteOffset":591840,
			"target":34962
		},
		{
			"buffer":0,
			"byteLength":48,
			"byteOffset":591888,
			"target":34962
		},
		{
			"buffer":0,
			"byteLength":32,
			"byteOffset":591936,
			"target":34962
		},
		{
			"buffer":0,
			"byteLength":12,
			"byteOffset":591968,
			"target":34963
		},
		{
			"buffer":0,
			"byteLength":624,
			"byteOffset":591980,
			"target":34962
		},
		{
			"buffer":0,
			"byteLength":624,
			"byteOffset":592604,
			"target":34962
		},
		{
			"buffer":0,
			"byteLength":416,
			"byteOffset":593228,
			"target":34962
		},
		{
			"buffer":0,
			"byteLength":360,
			"byteOffset":593644,
			"target":34963
		},
		{
			"buffer":0,
			"byteLength":624,
			"byteOffset":594004,
			"target":34962
		},
		{
			"buffer":0,
			"byteLength":624,
			"byteOffset":594628,
			"target":34962
		},
		{
			"buffer":0,
			"byteLength":416,
			"byteOffset":595252,
			"target":34962
		},
		{
			"buffer":0,
			"byteLength":624,
			"byteOffset":595668,
			"target":34962
		},
		{
			"buffer":0,
			"byteLength":624,
			"byteOffset":596292,
			"target":34962
		},
		{
			"buffer":0,
			"byteLength":416,
			"byteOffset":596916,
			"target":34962
		},
		{
			"buffer":0,
			"byteLength":840,
			"byteOffset":597332,
			"target":34962
		},
		{
			"buffer":0,
			"byteLength":840,
			"byteOffset":598172,
			"target":34962
		},
		{
			"buffer":0,
			"byteLength":560,
			"byteOffset":599012,
			"target":34962
		},
		{
			"buffer":0,
			"byteLength":552,
			"byteOffset":599572,
			"target":34963
		},
		{
			"buffer":0,
			"byteLength":840,
			"byteOffset":600124,
			"target":34962
		},
		{
			"buffer":0,
			"byteLength":840,
			"byteOffset":600964,
			"target":34962
		},
		{
			"buffer":0,
			"byteLength":560,
			"byteOffset":601804,
			"target":34962
		}
	],
	"samplers":[
		{
			"magFilter":9729,
			"minFilter":9987
		}
	],
	"buffers":[
		{
			"byteLength":602364,
			"uri":"uploads_files_3780593_%D0%BF%D0%BE%D0%BD%D1%87%D0%B8%D0%BA55.bin"
		}
	]
}
