{
  "accessors": [
    {
      "bufferView": 2,
      "componentType": 5126,
      "count": 9692,
      "max": [
        0.8888672590255737,
        1.313521385192871,
        2.1910955905914307
      ],
      "min": [
        -0.8888672590255737,
        -0.7152278423309326,
        -2.6226043701171875e-05
      ],
      "type": "VEC3"
    },
    {
      "bufferView": 2,
      "byteOffset": 116304,
      "componentType": 5126,
      "count": 9692,
      "max": [
        1.0,
        0.9999927282333374,
        0.9998677968978882
      ],
      "min": [
        -1.0,
        -0.999992847442627,
        -1.0
      ],
      "type": "VEC3"
    },
    {
      "bufferView": 1,
      "componentType": 5126,
      "count": 9692,
      "max": [
        0.9489748477935791,
        0.9957267045974731
      ],
      "min": [
        0.010863065719604492,
        0.004637330304831266
      ],
      "type": "VEC2"
    },
    {
      "bufferView": 0,
      "componentType": 5125,
      "count": 55422,
      "type": "SCALAR"
    },
    {
      "bufferView": 2,
      "byteOffset": 232608,
      "componentType": 5126,
      "count": 1341,
      "max": [
        0.45506900548934937,
        -0.4662218987941742,
        1.5812069177627563
      ],
      "min": [
        -0.45506900548934937,
        -1.2178748846054077,
        1.0304712057113647
      ],
      "type": "VEC3"
    },
    {
      "bufferView": 2,
      "byteOffset": 248700,
      "componentType": 5126,
      "count": 1341,
      "max": [
        0.9990400671958923,
        0.3284827172756195,
        0.9940766096115112
      ],
      "min": [
        -0.9990400671958923,
        -0.9993946552276611,
        -0.9996151924133301
      ],
      "type": "VEC3"
    },
    {
      "bufferView": 1,
      "byteOffset": 77536,
      "componentType": 5126,
      "count": 1341,
      "max": [
        0.9932538866996765,
        0.3513135612010956
      ],
      "min": [
        0.44891399145126343,
        0.03143943101167679
      ],
      "type": "VEC2"
    },
    {
      "bufferView": 0,
      "byteOffset": 221688,
      "componentType": 5125,
      "count": 7584,
      "type": "SCALAR"
    },
    {
      "bufferView": 2,
      "byteOffset": 264792,
      "componentType": 5126,
      "count": 1624,
      "max": [
        0.39745667576789856,
        0.23157139122486115,
        2.5582523345947266
      ],
      "min": [
        -0.3292921781539917,
        -0.6573508977890015,
        1.6793363094329834
      ],
      "type": "VEC3"
    },
    {
      "bufferView": 2,
      "byteOffset": 284280,
      "componentType": 5126,
      "count": 1624,
      "max": [
        0.9989458918571472,
        0.9999617338180542,
        0.9986762404441833
      ],
      "min": [
        -0.9971418380737305,
        -0.9985969662666321,
        -0.9966303706169128
      ],
      "type": "VEC3"
    },
    {
      "bufferView": 1,
      "byteOffset": 88264,
      "componentType": 5126,
      "count": 1624,
      "max": [
        0.9979060292243958,
        0.6016548275947571
      ],
      "min": [
        0.3870549499988556,
        0.015511667355895042
      ],
      "type": "VEC2"
    },
    {
      "bufferView": 0,
      "byteOffset": 252024,
      "componentType": 5125,
      "count": 8868,
      "type": "SCALAR"
    },
    {
      "bufferView": 2,
      "byteOffset": 303768,
      "componentType": 5126,
      "count": 546,
      "max": [
        0.489286333322525,
        -0.4799767732620239,
        1.8092682361602783
      ],
      "min": [
        -0.489286333322525,
        -0.6625968217849731,
        1.5177054405212402
      ],
      "type": "VEC3"
    },
    {
      "bufferView": 2,
      "byteOffset": 310320,
      "componentType": 5126,
      "count": 546,
      "max": [
        0.937816321849823,
        0.9839076995849609,
        0.9780986905097961
      ],
      "min": [
        -0.937816321849823,
        -0.9986291527748108,
        -0.998148500919342
      ],
      "type": "VEC3"
    },
    {
      "bufferView": 1,
      "byteOffset": 101256,
      "componentType": 5126,
      "count": 546,
      "max": [
        0.41870594024658203,
        0.6765096187591553
      ],
      "min": [
        0.30636322498321533,
        0.5546067953109741
      ],
      "type": "VEC2"
    },
    {
      "bufferView": 0,
      "byteOffset": 287496,
      "componentType": 5125,
      "count": 3072,
      "type": "SCALAR"
    }
  ],
  "asset": {
    "extras": {
      "author": "kuayarts (https://sketchfab.com/kuayarts)",
      "license": "CC-BY-4.0 (http://creativecommons.org/licenses/by/4.0/)",
      "source": "https://sketchfab.com/3d-models/pokemon-psybberduck-toy-f0864db153a3416695e681c575009daf",
      "title": "Pokemon Psybberduck - Toy"
    },
    "generator": "Sketchfab-12.78.0",
    "version": "2.0"
  },
  "bufferViews": [
    {
      "buffer": 0,
      "byteLength": 299784,
      "name": "floatBufferViews",
      "target": 34963
    },
    {
      "buffer": 0,
      "byteLength": 105624,
      "byteOffset": 299784,
      "byteStride": 8,
      "name": "floatBufferViews",
      "target": 34962
    },
    {
      "buffer": 0,
      "byteLength": 316872,
      "byteOffset": 405408,
      "byteStride": 12,
      "name": "floatBufferViews",
      "target": 34962
    }
  ],
  "buffers": [
    {
      "byteLength": 722280,
      "uri": "scene.bin"
    }
  ],
  "materials": [
    {
      "name": "Yellow",
      "pbrMetallicRoughness": {
        "baseColorFactor": [
          0.7999999999999999,
          0.5215489999999998,
          0.05728130000000002,
          1.0
        ],
        "metallicFactor": 0.0,
        "roughnessFactor": 0.38898898701708007
      }
    },
    {
      "doubleSided": true,
      "name": "Beak",
      "pbrMetallicRoughness": {
        "baseColorFactor": [
          0.8,
          0.708698,
          0.26683,
          1.0
        ],
        "metallicFactor": 0.0,
        "roughnessFactor": 0.38898898701708007
      }
    },
    {
      "doubleSided": true,
      "name": "Black",
      "pbrMetallicRoughness": {
        "baseColorFactor": [
          0.0,
          0.0,
          0.0,
          1.0
        ],
        "metallicFactor": 0.0,
        "roughnessFactor": 0.4643578232594412
      }
    },
    {
      "doubleSided": true,
      "name": "White",
      "pbrMetallicRoughness": {
        "baseColorFactor": [
          0.8,
          0.8,
          0.8,
          1.0
        ],
        "metallicFactor": 0.0,
        "roughnessFactor": 0.30105867806765885
      }
    }
  ],
  "meshes": [
    {
      "name": "Cube.003_Yellow_0",
      "primitives": [
        {
          "attributes": {
            "NORMAL": 1,
            "POSITION": 0,
            "TEXCOORD_0": 2
          },
          "indices": 3,
          "material": 0,
          "mode": 4
        }
      ]
    },
    {
      "name": "Cube.003_Beak_0",
      "primitives": [
        {
          "attributes": {
            "NORMAL": 5,
            "POSITION": 4,
            "TEXCOORD_0": 6
          },
          "indices": 7,
          "material": 1,
          "mode": 4
        }
      ]
    },
    {
      "name": "Cube.003_Black_0",
      "primitives": [
        {
          "attributes": {
            "NORMAL": 9,
            "POSITION": 8,
            "TEXCOORD_0": 10
          },
          "indices": 11,
          "material": 2,
          "mode": 4
        }
      ]
    },
    {
      "name": "Cube.003_White_0",
      "primitives": [
        {
          "attributes": {
            "NORMAL": 13,
            "POSITION": 12,
            "TEXCOORD_0": 14
          },
          "indices": 15,
          "material": 3,
          "mode": 4
        }
      ]
    }
  ],
  "nodes": [
    {
      "children": [
        1
      ],
      "matrix": [
        0.6627403497695923,
        0.0,
        0.0,
        0.0,
        0.0,
        1.4715791913246618e-16,
        -0.6627403497695923,
        0.0,
        0.0,
        0.6627403497695923,
        1.4715791913246618e-16,
        0.0,
        0.0,
        0.0,
        0.0,
        1.0
      ],
      "name": "Sketchfab_model"
    },
    {
      "children": [
        2
      ],
      "matrix": [
        0.009999999776482582,
        0.0,
        0.0,
        0.0,
        0.0,
        0.0,
        0.009999999776482582,
        0.0,
        0.0,
        -0.009999999776482582,
        0.0,
        0.0,
        0.0,
        0.0,
        0.0,
        1.0
      ],
      "name": "10d512f9342b46409294efbdf769b7b7.fbx"
    },
    {
      "children": [
        3
      ],
      "name": "RootNode"
    },
    {
      "children": [
        4,
        5,
        6,
        7
      ],
      "matrix": [
        13.549336433410645,
        0.0,
        0.0,
        0.0,
        0.0,
        -2.2074670970397563e-06,
        -13.549336433410465,
        0.0,
        0.0,
        13.549336433410465,
        -2.2074670970397563e-06,
        0.0,
        0.0,
        0.0,
        0.0,
        1.0
      ],
      "name": "Cube.003"
    },
    {
      "mesh": 0,
      "name": "Cube.003_Yellow_0"
    },
    {
      "mesh": 1,
      "name": "Cube.003_Beak_0"
    },
    {
      "mesh": 2,
      "name": "Cube.003_Black_0"
    },
    {
      "mesh": 3,
      "name": "Cube.003_White_0"
    }
  ],
  "scene": 0,
  "scenes": [
    {
      "name": "Sketchfab_Scene",
      "nodes": [
        0
      ]
    }
  ]
}
